<svg xmlns="http://www.w3.org/2000/svg" width="26.434" height="26.483" viewBox="0 0 26.434 26.483">
  <defs>
    <style>
      .cls-1 {
        fill: none;
        stroke: #2a2a2a;
        stroke-linecap: round;
        stroke-linejoin: round;
        stroke-width: 2px;
      }
    </style>
  </defs>
  <path id="phone" class="cls-1" d="M26.543,20.328v3.685a2.457,2.457,0,0,1-2.678,2.457,24.311,24.311,0,0,1-10.6-3.771,23.955,23.955,0,0,1-7.371-7.371A24.311,24.311,0,0,1,2.122,4.678,2.457,2.457,0,0,1,4.566,2H8.252a2.457,2.457,0,0,1,2.457,2.113,15.773,15.773,0,0,0,.86,3.452,2.457,2.457,0,0,1-.553,2.592l-1.56,1.56a19.655,19.655,0,0,0,7.371,7.371l1.56-1.56a2.457,2.457,0,0,1,2.592-.553,15.773,15.773,0,0,0,3.452.86,2.457,2.457,0,0,1,2.113,2.494Z" transform="translate(-1.111 -1)"/>
</svg>
